# xmcd
#
# Track frame offsets: 
#        150
#        17927
#        30371
#        49946
#        54391
#        72716
#        80338
#        101825
#        115606
#        120860
#        137877
#        158162
#        167271
#        169295
#        185045
#        190190
#        208045
#        223695
#
# Disc length: 3063 seconds
#
# Revision: 1
# Processed by: cddbd v1.5.2PL0 Copyright (c) Steve Scherf et al.
# Submitted via: ExactAudioCopy v0.99pb4
#
DISCID=fc0bf512
DTITLE=Strong Arm Steady - In Search of Stoney Jackson
DYEAR=2010
DGENRE=Hip-Hop
TTITLE0=Best of Times (feat. Phonte)
TTITLE1=Cheeba Cheeba
TTITLE2=Chittlins and Pepsi (feat. Planet Asia)
TTITLE3=Telegram
TTITLE4=Questions (feat. Planet Asia and Fashawn)
TTITLE5=Smile
TTITLE6=New Love (feat. Chace Infinite and Tri-State)
TTITLE7=Get Started (feat. Talib Kweli)
TTITLE8=Interlude One
TTITLE9=Pressure (feat. Sick Jacken and Mitchy Slick)
TTITLE10=True Champs (feat. Montage One, Evidence, Oh No and Roc C)
TTITLE11=Needle In The Haystack (feat. Roscoe and Guilty Simpson)
TTITLE12=Interlude Two
TTITLE13=Ambassadors (feat. Planet Asia and Chace Infinite)
TTITLE14=Chants
TTITLE15=Bark Like A Dog (feat. Phats Bossalini and Montage One)
TTITLE16=Two Pistols (feat. Mitchy Slick)
TTITLE17=Outro
EXTD=
EXTT0=
EXTT1=
EXTT2=
EXTT3=
EXTT4=
EXTT5=
EXTT6=
EXTT7=
EXTT8=
EXTT9=
EXTT10=
EXTT11=
EXTT12=
EXTT13=
EXTT14=
EXTT15=
EXTT16=
EXTT17=
PLAYORDER=
